<?xml version="1.0" standalone="no"?><!-- Generator: Gravit.io --><svg xmlns="http://www.w3.org/2000/svg" xmlns:xlink="http://www.w3.org/1999/xlink" style="isolation:isolate" viewBox="0 0 512 512" width="512" height="512"><defs><clipPath id="_clipPath_H2HP12gnTCex3ZrpXhriFDuYpsyGsNIb"><rect width="512" height="512"/></clipPath></defs><g clip-path="url(#_clipPath_H2HP12gnTCex3ZrpXhriFDuYpsyGsNIb)"><clipPath id="_clipPath_9cziPeTwHkS05iqUNeG8wED4hDRem7hM"><rect x="0" y="0" width="512" height="512" transform="matrix(1,0,0,1,0,0)" fill="rgb(255,255,255)"/></clipPath><g clip-path="url(#_clipPath_9cziPeTwHkS05iqUNeG8wED4hDRem7hM)"><g id="Group"><g id="haskell_logo"><clipPath id="_clipPath_ULLCCRswOu9DU9qxTyF2byxhCI7h2t46"><path d=" M 126.231 371.073 L 382.7 371.073 L 382.7 161.559 L 126.231 161.559 L 126.231 371.073 Z " fill="rgb(255,255,255)"/></clipPath><g clip-path="url(#_clipPath_ULLCCRswOu9DU9qxTyF2byxhCI7h2t46)"><g id="Group"><g id="Group"><path d=" M 126.231 371.073 L 186.577 266.316 L 126.231 161.559 L 171.49 161.559 L 231.836 266.316 L 171.49 371.073 L 126.231 371.073 Z " fill="rgb(69,59,97)"/><path d=" M 186.577 371.073 L 246.923 266.316 L 186.577 161.559 L 231.836 161.559 L 352.526 371.073 L 307.267 371.073 L 269.552 305.601 L 231.836 371.073 L 186.577 371.073 Z " fill="rgb(95,82,134)"/><path d=" M 332.412 309.965 L 312.299 275.047 L 382.7 275.045 L 382.7 309.965 L 332.412 309.965 Z " fill="rgb(142,80,138)"/><path d=" M 302.24 257.587 L 282.124 222.669 L 382.7 222.667 L 382.7 257.587 L 302.24 257.587 Z " fill="rgb(142,80,138)"/></g></g></g></g><path d=" M 35.22 455.837 L 24.654 77.48 L 24.654 77.48 Q 24.263 68.011 25.339 62.505 L 25.339 62.505 L 25.339 62.505 Q 26.415 56.997 29.84 54.099 L 29.84 54.099 L 29.84 54.099 Q 33.264 51.2 39.525 50.427 L 39.525 50.427 L 39.525 50.427 Q 45.787 49.654 55.766 49.654 L 55.766 49.654 L 116.619 49.654 L 116.619 49.654 Q 120.729 49.654 123.077 50.233 L 123.077 50.233 L 123.077 50.233 Q 125.425 50.813 126.599 52.552 L 126.599 52.552 L 126.599 52.552 Q 127.773 54.292 128.066 57.481 L 128.066 57.481 L 128.066 57.481 Q 128.36 60.668 128.36 65.886 L 128.36 65.886 L 128.36 65.886 Q 128.36 71.683 127.871 75.258 L 127.871 75.258 L 127.871 75.258 Q 127.381 78.833 126.012 80.765 L 126.012 80.765 L 126.012 80.765 Q 124.642 82.698 122.49 83.277 L 122.49 83.277 L 122.49 83.277 Q 120.337 83.857 116.816 83.857 L 116.816 83.857 L 79.834 84.05 L 72.594 441.925 L 111.532 441.925 L 111.532 441.925 Q 115.25 441.925 117.403 442.601 L 117.403 442.601 L 117.403 442.601 Q 119.555 443.277 120.631 445.017 L 120.631 445.017 L 120.631 445.017 Q 121.707 446.756 122 450.041 L 122 450.041 L 122 450.041 Q 122.294 453.325 122.294 458.543 L 122.294 458.543 L 122.294 458.543 Q 122.294 463.76 121.805 466.852 L 121.805 466.852 L 121.805 466.852 Q 121.316 469.944 119.947 471.586 L 119.947 471.586 L 119.947 471.586 Q 118.576 473.228 116.326 473.615 L 116.326 473.615 L 116.326 473.615 Q 114.076 474.002 110.358 474.002 L 110.358 474.002 L 53.614 474.002 L 53.614 474.002 Q 48.135 474.002 44.613 473.422 L 44.613 473.422 L 44.613 473.422 Q 41.091 472.843 39.036 470.91 L 39.036 470.91 L 39.036 470.91 Q 36.982 468.978 36.199 465.403 L 36.199 465.403 L 36.199 465.403 Q 35.417 461.828 35.22 455.837 L 35.22 455.837 Z " fill="rgb(68,58,96)"/><path d=" M 399.264 441.352 L 437.928 441.352 L 430.739 85.998 L 394.018 85.806 L 394.018 85.806 Q 390.521 85.806 388.384 85.23 L 388.384 85.23 L 388.384 85.23 Q 386.247 84.655 384.886 82.736 L 384.886 82.736 L 384.886 82.736 Q 383.526 80.817 383.041 77.268 L 383.041 77.268 L 383.041 77.268 Q 382.555 73.718 382.555 67.962 L 382.555 67.962 L 382.555 67.962 Q 382.555 62.781 382.847 59.615 L 382.847 59.615 L 382.847 59.615 Q 383.138 56.449 384.303 54.722 L 384.303 54.722 L 384.303 54.722 Q 385.469 52.996 387.801 52.42 L 387.801 52.42 L 387.801 52.42 Q 390.132 51.844 394.212 51.844 L 394.212 51.844 L 454.637 51.844 L 454.637 51.844 Q 464.546 51.844 470.764 52.612 L 470.764 52.612 L 470.764 52.612 Q 476.981 53.379 480.381 56.258 L 480.381 56.258 L 480.381 56.258 Q 483.781 59.136 484.753 64.604 L 484.753 64.604 L 484.753 64.604 Q 485.724 70.072 485.53 79.474 L 485.53 79.474 L 475.038 455.168 L 475.038 455.168 Q 474.844 461.116 473.969 464.665 L 473.969 464.665 L 473.969 464.665 Q 473.095 468.214 471.055 470.134 L 471.055 470.134 L 471.055 470.134 Q 469.015 472.052 465.615 472.628 L 465.615 472.628 L 465.615 472.628 Q 462.215 473.204 456.775 473.204 L 456.775 473.204 L 400.43 473.204 L 400.43 473.204 Q 396.738 473.204 394.407 472.82 L 394.407 472.82 L 394.407 472.82 Q 392.076 472.436 390.812 470.806 L 390.812 470.806 L 390.812 470.806 Q 389.549 469.174 389.064 466.104 L 389.064 466.104 L 389.064 466.104 Q 388.578 463.034 388.578 457.854 L 388.578 457.854 L 388.578 457.854 Q 388.578 452.672 388.87 449.411 L 388.87 449.411 L 388.87 449.411 Q 389.161 446.149 390.229 444.422 L 390.229 444.422 L 390.229 444.422 Q 391.298 442.695 393.435 442.024 L 393.435 442.024 L 393.435 442.024 Q 395.573 441.352 399.264 441.352 L 399.264 441.352 L 399.264 441.352 Z " fill="rgb(68,58,96)"/></g></g></g></svg>